{"title":"The Incredible Hulk (2008)  1080p  BluRay","uid":8819231,"size":6496564077,"categoryP":"video","categoryS":"hd___movies","magnet":"?xt=urn:btih:e61c3b7511a3cf9411b1356f2551152c4f11f86f&amp;dn=The+Incredible+Hulk+%282008%29++1080p++BluRay&amp;tr=udp%3A%2F%2Ftracker.openbittorrent.com%3A80&amp;tr=udp%3A%2F%2Fopen.demonii.com%3A1337&amp;tr=udp%3A%2F%2Ftracker.coppersurfer.tk%3A6969&amp;tr=udp%3A%2F%2Fexodus.desync.com%3A6969","seeders":13,"leechers":10,"uploader":"molpol","files":-1,"time":1376658922,"description":"\nThe Incredible Hulk (2008) 1080p Dual Audio: English &amp; Latin Spanish\n\n\nOverview\n\nScientist Bruce Banner scours the planet for an antidote to the unbridled force of rage within him: the Hulk. But when the military masterminds who dream of exploiting his powers force him back to civilization, he finds himself coming face to face with a new, deadly foe.\n\n\nMedia Info:\n\nFormat                                   : Matroska\nFormat version                           : Version 4 / Version 2\nFile size                                : 6.05 GiB\nDuration                                 : 1h 52mn\nOverall bit rate                         : 7 709 Kbps\nMovie name                               : INCRED_HULK_2008.Title0.BlurayRip\nEncoded date                             : UTC 2013-08-12 00:46:03\nWriting application                      : mkvmerge v6.1.0 ('Old Devil') built on Mar  2 2013 22:22:31\nWriting library                          : libebml v1.3.0 + libmatroska v1.4.0\n\nVideo\nID                                       : 1\nFormat                                   : AVC\nFormat/Info                              : Advanced Video Codec\nFormat profile                           : &lt;a class=&quot;__cf_email__&quot; href=&quot;/cdn-cgi/l/email-protection&quot; data-cfemail=&quot;430b2a242b030f776d72&quot;&gt;[email&amp;#160;protected]&lt;/a&gt;&lt;script cf-hash='f9e31' type=&quot;text/javascript&quot;&gt;\n/* &lt;![CDATA[ */!function(){try{var t=&quot;currentScript&quot;in document?document.currentScript:function(){for(var t=document.getElementsByTagName(&quot;script&quot;),e=t.length;e--;)if(t[e].getAttribute(&quot;cf-hash&quot;))return t[e]}();if(t&amp;&amp;t.previousSibling){var e,r,n,i,c=t.previousSibling,a=c.getAttribute(&quot;data-cfemail&quot;);if(a){for(e=&quot;&quot;,r=parseInt(a.substr(0,2),16),n=2;a.length-n;n+=2)i=parseInt(a.substr(n,2),16)^r,e+=String.fromCharCode(i);e=document.createTextNode(e),c.parentNode.replaceChild(e,c)}}}catch(u){}}();/* ]]&gt; */&lt;/script&gt;\nFormat settings, CABAC                   : Yes\nFormat settings, ReFrames                : 2 frames\nCodec ID                                 : V_MPEG4/ISO/AVC\nDuration                                 : 1h 52mn\nBit rate                                 : 5 278 Kbps\nWidth                                    : 1 920 pixels\nHeight                                   : 816 pixels\nDisplay aspect ratio                     : 2.35:1\nFrame rate mode                          : Constant\nFrame rate                               : 23.976 fps\nColor space                              : YUV\nChroma subsampling                       : 4:2:0\nBit depth                                : 8 bits\nScan type                                : Progressive\nBits/(Pixel*Frame)                       : 0.141\nStream size                              : 4.14 GiB (68%)\nWriting library                          : x264 core\nDefault                                  : Yes\nForced                                   : No\nColor primaries                          : BT.709\nTransfer characteristics                 : BT.709\nMatrix coefficients                      : BT.709\n\nAudio #1\nID                                       : 2\nFormat                                   : DTS\nFormat/Info                              : Digital Theater Systems\nMode                                     : 16\nFormat settings, Endianness              : Big\nCodec ID                                 : A_DTS\nDuration                                 : 1h 52mn\nBit rate mode                            : Constant\nBit rate                                 : 768 Kbps\nChannel(s)                               : 6 channels\nChannel positions                        : Front: L C R, Side: L R, LFE\nSampling rate                            : 48.0 KHz\nBit depth                                : 24 bits\nCompression mode                         : Lossy\nStream size                              : 617 MiB (10%)\nLanguage                                 : Latin Spanish\nDefault                                  : Yes\nForced                                   : No\n\nAudio #2\nID                                       : 3\nFormat                                   : DTS\nFormat/Info                              : Digital Theater Systems\nMode                                     : 16\nFormat settings, Endianness              : Big\nCodec ID                                 : A_DTS\nDuration                                 : 1h 52mn\nBit rate mode                            : Constant\nBit rate                                 : 1 509 Kbps\nChannel(s)                               : 6 channels\nChannel positions                        : Front: L C R, Side: L R, LFE\nSampling rate                            : 48.0 KHz\nBit depth                                : 24 bits\nCompression mode                         : Lossy\nStream size                              : 1.18 GiB (20%)\nLanguage                                 : English\nDefault                                  : No\nForced                                   : No\n\nText #1\nID                                       : 4\nFormat                                   : PGS\nMuxing mode                              : zlib\nCodec ID                                 : S_HDMV/PGS\nCodec ID/Info                            : The same subtitle format used on BDs/HD-DVDs\nLanguage                                 : Spanish\nDefault                                  : No\nForced                                   : No\n\nText #2\nID                                       : 5\nFormat                                   : PGS\nMuxing mode                              : zlib\nCodec ID                                 : S_HDMV/PGS\nCodec ID/Info                            : The same subtitle format used on BDs/HD-DVDs\nLanguage                                 : Spanish\nDefault                                  : Yes\nForced                                   : No\n\nMenu\n00:00:00.000                             : en:(01)00:00:00:000\n00:05:49.640                             : en:(02)00:05:49:640\n00:12:52.313                             : en:(03)00:12:52:313\n00:16:10.761                             : en:(04)00:16:10:761\n00:21:17.025                             : en:(05)00:21:17:025\n00:26:27.794                             : en:(06)00:26:27:794\n00:30:42.882                             : en:(07)00:30:42:882\n00:34:11.549                             : en:(08)00:34:11:549\n00:40:22.169                             : en:(09)00:40:22:169\n00:47:33.308                             : en:(10)00:47:33:308\n00:55:57.187                             : en:(11)00:55:57:187\n01:02:27.452                             : en:(12)01:02:27:452\n01:07:56.781                             : en:(13)01:07:56:781\n01:12:20.919                             : en:(14)01:12:20:919\n01:19:53.079                             : en:(15)01:19:53:079\n01:24:03.037                             : en:(16)01:24:03:037\n01:30:27.547                             : en:(17)01:30:27:547\n01:37:03.984                             : en:(18)01:37:03:984\n01:42:41.113                             : en:(19)01:42:41:113\n01:45:35.162                             : en:(20)01:45:35:162\n01:52:20.817                             : en:(21)01:52:20:817\n\n\n\n","torrent":{"xt":"urn:btih:e61c3b7511a3cf9411b1356f2551152c4f11f86f","amp;dn":"The+Incredible+Hulk+%282008%29++1080p++BluRay","amp;tr":["udp%3A%2F%2Ftracker.openbittorrent.com%3A80","udp%3A%2F%2Fopen.demonii.com%3A1337","udp%3A%2F%2Ftracker.coppersurfer.tk%3A6969","udp%3A%2F%2Fexodus.desync.com%3A6969"],"infoHash":"e61c3b7511a3cf9411b1356f2551152c4f11f86f","infoHashBuffer":{"type":"Buffer","data":[230,28,59,117,17,163,207,148,17,177,53,111,37,81,21,44,79,17,248,111]},"announce":[],"urlList":[]}}